STARTFONT 2.1
COMMENT
COMMENT Converted from OpenType font "LibreBarcode39-Regular.ttf" by "otf2bdf 3.0".
COMMENT
FONT -FreeType-Libre Barcode 39-Medium-R-Normal--30-220-100-100-P-141-ISO10646-1
SIZE 22 100 100
FONTBOUNDINGBOX 14 18 0 0
STARTPROPERTIES 19
FOUNDRY "FreeType"
FAMILY_NAME "Libre Barcode 39"
WEIGHT_NAME "Medium"
SLANT "R"
SETWIDTH_NAME "Normal"
ADD_STYLE_NAME ""
PIXEL_SIZE 30
POINT_SIZE 220
RESOLUTION_X 100
RESOLUTION_Y 100
SPACING "P"
AVERAGE_WIDTH 141
CHARSET_REGISTRY "ISO10646"
CHARSET_ENCODING "1"
FONT_ASCENT 18
FONT_DESCENT 12
COPYRIGHT "Copyright 2017-2020 The Libre Barcode Project Authors (https://github.com/graphicore/librebarcode)"
_OTF_FONTFILE "LibreBarcode39-Regular.ttf"
_OTF_PSNAME "LibreBarcode39-Regular"
ENDPROPERTIES
CHARS 43
STARTCHAR 0020
ENCODING 32
SWIDTH 490 0
DWIDTH 15 0
BBX 0 0 0 0
BITMAP
ENDCHAR
STARTCHAR 0024
ENCODING 36
SWIDTH 490 0
DWIDTH 15 0
BBX 14 18 0 0
BITMAP
8914
8914
8914
8914
8914
8914
8914
8914
8914
8914
8914
8914
8914
8914
8914
8914
8914
8914
ENDCHAR
STARTCHAR 0025
ENCODING 37
SWIDTH 490 0
DWIDTH 15 0
BBX 14 18 0 0
BITMAP
A244
A244
A244
A244
A244
A244
A244
A244
A244
A244
A244
A244
A244
A244
A244
A244
A244
A244
ENDCHAR
STARTCHAR 002A
ENCODING 42
SWIDTH 490 0
DWIDTH 15 0
BBX 14 18 0 0
BITMAP
8B74
8B74
8B74
8B74
8B74
8B74
8B74
8B74
8B74
8B74
8B74
8B74
8B74
8B74
8B74
8B74
8B74
8B74
ENDCHAR
STARTCHAR 002D
ENCODING 45
SWIDTH 490 0
DWIDTH 15 0
BBX 14 18 0 0
BITMAP
8BDC
8BDC
8BDC
8BDC
8BDC
8BDC
8BDC
8BDC
8BDC
8BDC
8BDC
8BDC
8BDC
8BDC
8BDC
8BDC
8BDC
8BDC
ENDCHAR
STARTCHAR 002E
ENCODING 46
SWIDTH 490 0
DWIDTH 15 0
BBX 14 18 0 0
BITMAP
E374
E374
E374
E374
E374
E374
E374
E374
E374
E374
E374
E374
E374
E374
E374
E374
E374
E374
ENDCHAR
STARTCHAR 002F
ENCODING 47
SWIDTH 490 0
DWIDTH 15 0
BBX 14 18 0 0
BITMAP
8944
8944
8944
8944
8944
8944
8944
8944
8944
8944
8944
8944
8944
8944
8944
8944
8944
8944
ENDCHAR
STARTCHAR 0030
ENCODING 48
SWIDTH 490 0
DWIDTH 15 0
BBX 14 18 0 0
BITMAP
A374
A374
A374
A374
A374
A374
A374
A374
A374
A374
A374
A374
A374
A374
A374
A374
A374
A374
ENDCHAR
STARTCHAR 0031
ENCODING 49
SWIDTH 490 0
DWIDTH 15 0
BBX 14 18 0 0
BITMAP
E95C
E95C
E95C
E95C
E95C
E95C
E95C
E95C
E95C
E95C
E95C
E95C
E95C
E95C
E95C
E95C
E95C
E95C
ENDCHAR
STARTCHAR 0032
ENCODING 50
SWIDTH 490 0
DWIDTH 15 0
BBX 14 18 0 0
BITMAP
B95C
B95C
B95C
B95C
B95C
B95C
B95C
B95C
B95C
B95C
B95C
B95C
B95C
B95C
B95C
B95C
B95C
B95C
ENDCHAR
STARTCHAR 0033
ENCODING 51
SWIDTH 490 0
DWIDTH 15 0
BBX 14 18 0 0
BITMAP
EE54
EE54
EE54
EE54
EE54
EE54
EE54
EE54
EE54
EE54
EE54
EE54
EE54
EE54
EE54
EE54
EE54
EE54
ENDCHAR
STARTCHAR 0034
ENCODING 52
SWIDTH 490 0
DWIDTH 15 0
BBX 14 18 0 0
BITMAP
A35C
A35C
A35C
A35C
A35C
A35C
A35C
A35C
A35C
A35C
A35C
A35C
A35C
A35C
A35C
A35C
A35C
A35C
ENDCHAR
STARTCHAR 0035
ENCODING 53
SWIDTH 490 0
DWIDTH 15 0
BBX 14 18 0 0
BITMAP
E9D4
E9D4
E9D4
E9D4
E9D4
E9D4
E9D4
E9D4
E9D4
E9D4
E9D4
E9D4
E9D4
E9D4
E9D4
E9D4
E9D4
E9D4
ENDCHAR
STARTCHAR 0036
ENCODING 54
SWIDTH 490 0
DWIDTH 15 0
BBX 14 18 0 0
BITMAP
B9D4
B9D4
B9D4
B9D4
B9D4
B9D4
B9D4
B9D4
B9D4
B9D4
B9D4
B9D4
B9D4
B9D4
B9D4
B9D4
B9D4
B9D4
ENDCHAR
STARTCHAR 0037
ENCODING 55
SWIDTH 490 0
DWIDTH 15 0
BBX 14 18 0 0
BITMAP
A3DC
A3DC
A3DC
A3DC
A3DC
A3DC
A3DC
A3DC
A3DC
A3DC
A3DC
A3DC
A3DC
A3DC
A3DC
A3DC
A3DC
A3DC
ENDCHAR
STARTCHAR 0038
ENCODING 56
SWIDTH 490 0
DWIDTH 15 0
BBX 14 18 0 0
BITMAP
E974
E974
E974
E974
E974
E974
E974
E974
E974
E974
E974
E974
E974
E974
E974
E974
E974
E974
ENDCHAR
STARTCHAR 0039
ENCODING 57
SWIDTH 490 0
DWIDTH 15 0
BBX 14 18 0 0
BITMAP
B974
B974
B974
B974
B974
B974
B974
B974
B974
B974
B974
B974
B974
B974
B974
B974
B974
B974
ENDCHAR
STARTCHAR 0041
ENCODING 65
SWIDTH 490 0
DWIDTH 15 0
BBX 14 18 0 0
BITMAP
EA5C
EA5C
EA5C
EA5C
EA5C
EA5C
EA5C
EA5C
EA5C
EA5C
EA5C
EA5C
EA5C
EA5C
EA5C
EA5C
EA5C
EA5C
ENDCHAR
STARTCHAR 0042
ENCODING 66
SWIDTH 490 0
DWIDTH 15 0
BBX 14 18 0 0
BITMAP
BA5C
BA5C
BA5C
BA5C
BA5C
BA5C
BA5C
BA5C
BA5C
BA5C
BA5C
BA5C
BA5C
BA5C
BA5C
BA5C
BA5C
BA5C
ENDCHAR
STARTCHAR 0043
ENCODING 67
SWIDTH 490 0
DWIDTH 15 0
BBX 14 18 0 0
BITMAP
EF14
EF14
EF14
EF14
EF14
EF14
EF14
EF14
EF14
EF14
EF14
EF14
EF14
EF14
EF14
EF14
EF14
EF14
ENDCHAR
STARTCHAR 0044
ENCODING 68
SWIDTH 490 0
DWIDTH 15 0
BBX 14 18 0 0
BITMAP
AE5C
AE5C
AE5C
AE5C
AE5C
AE5C
AE5C
AE5C
AE5C
AE5C
AE5C
AE5C
AE5C
AE5C
AE5C
AE5C
AE5C
AE5C
ENDCHAR
STARTCHAR 0045
ENCODING 69
SWIDTH 490 0
DWIDTH 15 0
BBX 14 18 0 0
BITMAP
EB14
EB14
EB14
EB14
EB14
EB14
EB14
EB14
EB14
EB14
EB14
EB14
EB14
EB14
EB14
EB14
EB14
EB14
ENDCHAR
STARTCHAR 0046
ENCODING 70
SWIDTH 490 0
DWIDTH 15 0
BBX 14 18 0 0
BITMAP
BB14
BB14
BB14
BB14
BB14
BB14
BB14
BB14
BB14
BB14
BB14
BB14
BB14
BB14
BB14
BB14
BB14
BB14
ENDCHAR
STARTCHAR 0047
ENCODING 71
SWIDTH 490 0
DWIDTH 15 0
BBX 14 18 0 0
BITMAP
A9DC
A9DC
A9DC
A9DC
A9DC
A9DC
A9DC
A9DC
A9DC
A9DC
A9DC
A9DC
A9DC
A9DC
A9DC
A9DC
A9DC
A9DC
ENDCHAR
STARTCHAR 0048
ENCODING 72
SWIDTH 490 0
DWIDTH 15 0
BBX 14 18 0 0
BITMAP
EA74
EA74
EA74
EA74
EA74
EA74
EA74
EA74
EA74
EA74
EA74
EA74
EA74
EA74
EA74
EA74
EA74
EA74
ENDCHAR
STARTCHAR 0049
ENCODING 73
SWIDTH 490 0
DWIDTH 15 0
BBX 14 18 0 0
BITMAP
BA74
BA74
BA74
BA74
BA74
BA74
BA74
BA74
BA74
BA74
BA74
BA74
BA74
BA74
BA74
BA74
BA74
BA74
ENDCHAR
STARTCHAR 004A
ENCODING 74
SWIDTH 490 0
DWIDTH 15 0
BBX 14 18 0 0
BITMAP
AE74
AE74
AE74
AE74
AE74
AE74
AE74
AE74
AE74
AE74
AE74
AE74
AE74
AE74
AE74
AE74
AE74
AE74
ENDCHAR
STARTCHAR 004B
ENCODING 75
SWIDTH 490 0
DWIDTH 15 0
BBX 14 18 0 0
BITMAP
EB1C
EB1C
EB1C
EB1C
EB1C
EB1C
EB1C
EB1C
EB1C
EB1C
EB1C
EB1C
EB1C
EB1C
EB1C
EB1C
EB1C
EB1C
ENDCHAR
STARTCHAR 004C
ENCODING 76
SWIDTH 490 0
DWIDTH 15 0
BBX 14 18 0 0
BITMAP
BB1C
BB1C
BB1C
BB1C
BB1C
BB1C
BB1C
BB1C
BB1C
BB1C
BB1C
BB1C
BB1C
BB1C
BB1C
BB1C
BB1C
BB1C
ENDCHAR
STARTCHAR 004D
ENCODING 77
SWIDTH 490 0
DWIDTH 15 0
BBX 14 18 0 0
BITMAP
EF44
EF44
EF44
EF44
EF44
EF44
EF44
EF44
EF44
EF44
EF44
EF44
EF44
EF44
EF44
EF44
EF44
EF44
ENDCHAR
STARTCHAR 004E
ENCODING 78
SWIDTH 490 0
DWIDTH 15 0
BBX 14 18 0 0
BITMAP
AF1C
AF1C
AF1C
AF1C
AF1C
AF1C
AF1C
AF1C
AF1C
AF1C
AF1C
AF1C
AF1C
AF1C
AF1C
AF1C
AF1C
AF1C
ENDCHAR
STARTCHAR 004F
ENCODING 79
SWIDTH 490 0
DWIDTH 15 0
BBX 14 18 0 0
BITMAP
EB44
EB44
EB44
EB44
EB44
EB44
EB44
EB44
EB44
EB44
EB44
EB44
EB44
EB44
EB44
EB44
EB44
EB44
ENDCHAR
STARTCHAR 0050
ENCODING 80
SWIDTH 490 0
DWIDTH 15 0
BBX 14 18 0 0
BITMAP
BB44
BB44
BB44
BB44
BB44
BB44
BB44
BB44
BB44
BB44
BB44
BB44
BB44
BB44
BB44
BB44
BB44
BB44
ENDCHAR
STARTCHAR 0051
ENCODING 81
SWIDTH 490 0
DWIDTH 15 0
BBX 14 18 0 0
BITMAP
AB1C
AB1C
AB1C
AB1C
AB1C
AB1C
AB1C
AB1C
AB1C
AB1C
AB1C
AB1C
AB1C
AB1C
AB1C
AB1C
AB1C
AB1C
ENDCHAR
STARTCHAR 0052
ENCODING 82
SWIDTH 490 0
DWIDTH 15 0
BBX 14 18 0 0
BITMAP
EBC4
EBC4
EBC4
EBC4
EBC4
EBC4
EBC4
EBC4
EBC4
EBC4
EBC4
EBC4
EBC4
EBC4
EBC4
EBC4
EBC4
EBC4
ENDCHAR
STARTCHAR 0053
ENCODING 83
SWIDTH 490 0
DWIDTH 15 0
BBX 14 18 0 0
BITMAP
BBC4
BBC4
BBC4
BBC4
BBC4
BBC4
BBC4
BBC4
BBC4
BBC4
BBC4
BBC4
BBC4
BBC4
BBC4
BBC4
BBC4
BBC4
ENDCHAR
STARTCHAR 0054
ENCODING 84
SWIDTH 490 0
DWIDTH 15 0
BBX 14 18 0 0
BITMAP
AFC4
AFC4
AFC4
AFC4
AFC4
AFC4
AFC4
AFC4
AFC4
AFC4
AFC4
AFC4
AFC4
AFC4
AFC4
AFC4
AFC4
AFC4
ENDCHAR
STARTCHAR 0055
ENCODING 85
SWIDTH 490 0
DWIDTH 15 0
BBX 14 18 0 0
BITMAP
E35C
E35C
E35C
E35C
E35C
E35C
E35C
E35C
E35C
E35C
E35C
E35C
E35C
E35C
E35C
E35C
E35C
E35C
ENDCHAR
STARTCHAR 0056
ENCODING 86
SWIDTH 490 0
DWIDTH 15 0
BBX 14 18 0 0
BITMAP
8F5C
8F5C
8F5C
8F5C
8F5C
8F5C
8F5C
8F5C
8F5C
8F5C
8F5C
8F5C
8F5C
8F5C
8F5C
8F5C
8F5C
8F5C
ENDCHAR
STARTCHAR 0057
ENCODING 87
SWIDTH 490 0
DWIDTH 15 0
BBX 14 18 0 0
BITMAP
E354
E354
E354
E354
E354
E354
E354
E354
E354
E354
E354
E354
E354
E354
E354
E354
E354
E354
ENDCHAR
STARTCHAR 0058
ENCODING 88
SWIDTH 490 0
DWIDTH 15 0
BBX 14 18 0 0
BITMAP
8B5C
8B5C
8B5C
8B5C
8B5C
8B5C
8B5C
8B5C
8B5C
8B5C
8B5C
8B5C
8B5C
8B5C
8B5C
8B5C
8B5C
8B5C
ENDCHAR
STARTCHAR 0059
ENCODING 89
SWIDTH 490 0
DWIDTH 15 0
BBX 14 18 0 0
BITMAP
E3D4
E3D4
E3D4
E3D4
E3D4
E3D4
E3D4
E3D4
E3D4
E3D4
E3D4
E3D4
E3D4
E3D4
E3D4
E3D4
E3D4
E3D4
ENDCHAR
STARTCHAR 005A
ENCODING 90
SWIDTH 490 0
DWIDTH 15 0
BBX 14 18 0 0
BITMAP
8FD4
8FD4
8FD4
8FD4
8FD4
8FD4
8FD4
8FD4
8FD4
8FD4
8FD4
8FD4
8FD4
8FD4
8FD4
8FD4
8FD4
8FD4
ENDCHAR
ENDFONT
